# xmcd CD database file
#
# Track frame offsets:
#	150
#	4190
#	15201
#	25375
#	34224
#	47623
#	57435
#	77912
#	95613
#	105904
#	123784
#	132435
#	148803
#	158700
#
# Disc length: 2202 seconds
#
# Revision: 0
# Processed by: cddbd v1.4PL0 Copyright (c) Steve Scherf et al.
# Submitted via: Feurio! 1.65 - http://www.feurio.com
#
DISCID=ad08980e
DTITLE=Loretta Lynn - Coal Miner's Daughter
DYEAR=2002
DGENRE=DVD Plus
TTITLE0=Intro -(Live)
TTITLE1=Hey Loretta -(Live)
TTITLE2=You're Looking At Country -(Live)
TTITLE3=We've Come A Long Way Baby -(Live)
TTITLE4=Let Your Love Flow -(Live)
TTITLE5=You Ain't Woman Enough -(Live)
TTITLE6=Medley: I Fall To Pieces/ Walking After Midnight/Crazy -(Live)
TTITLE7=Me And Bobby Mcgee -(Live)
TTITLE8=Out Of My Head And Back In My Bed -(Live)
TTITLE9=Coal Miner's Daughter -(Live)
TTITLE10=They Don't Make 'em Like My Daddy Anymore -(Live)
TTITLE11=Medley: One's On The Way/The Pill -(Live)
TTITLE12=Don't Go Home A-Drinkin' -(Live)
TTITLE13=Outro -(Live)
EXTD=Dolby Digital 5.1. -VÖ-Datum: 15.1.2002-Mazur\r\n
EXTT0=
EXTT1=
EXTT2=
EXTT3=
EXTT4=
EXTT5=
EXTT6=
EXTT7=
EXTT8=
EXTT9=
EXTT10=
EXTT11=
EXTT12=
EXTT13=
PLAYORDER=
